<?xml version="1.0" encoding="UTF-8"?>
<svg id="Layer_2" data-name="Layer 2" xmlns="http://www.w3.org/2000/svg" viewBox="0 0 356.74 332.15">
  <g id="Layer_1-2" data-name="Layer 1">
    <path d="m194.32,311.43c-33.29,0-66.57.03-99.86-.06-2.55,0-3.67.85-4.7,3.15-4.32,9.65-12.11,15.2-22.32,17-12.4,2.19-23.02-1.37-31.17-11.27-1.14-1.38-2.4-1.3-3.95-1.13-11.38,1.24-24.11-5.78-26.71-18.28-1.46-7.04.68-13.12,5.04-18.55,1-1.25,1.4-2.48,1.4-4.03-.02-37.88-.02-75.75,0-113.63,0-1.45-.3-2.58-1.48-3.67-12.99-12.08-15.21-32.63.23-44.94.94-.75,1.23-1.67,1.23-2.79-.01-3.03-.02-6.07,0-9.1,0-1.31-.55-2.33-1.3-3.36-5.03-6.94-6.08-14.37-2.43-22.25.67-1.45.6-2.45-.42-3.76C-4.31,59.11-.25,37.5,16.78,26.99c14.19-8.75,31.72-7.88,44.92,2.36,2,1.55,3.99,2.21,6.51,2.2,15.25-.09,30.5-.1,45.75,0,2.47.02,3.43-.77,3.82-3.2,1.05-6.4,4.16-11.81,10.57-13.6,4.2-1.17,6.69-3.11,9.35-6.51,6.88-8.79,17.41-8.23,24.11.68,1.13,1.5,2.21,2.06,4.13,1.68,3.59-.7,7.05-.02,10.1,2.06,1.39.95,2.48,1.15,3.97.12,2.63-1.82,5.65-2.6,8.86-2.39,1.56.1,2.8-.34,4.02-1.38,3.58-3.03,7.74-4.2,12.38-3.31,1.27.24,2.16-.12,3.09-.96,7.09-6.44,15.96-6.28,22.9.22,2.75,2.57,5.85,4.78,7.59,8.27.48.96,1.33,1.06,2.32.87,6.84-1.3,12.24.94,16.23,6.63.63.9,1.55,1.44,2.52,1.91,3.06,1.48,5.41,3.72,6.87,6.78.74,1.55,1.8,2.11,3.48,2.1,14.02-.04,28.04-.05,42.06,0,1.68,0,2.97-.8,4.34-1.51,9.86-5.1,20.79-3.33,28.37,4.67,3.41,3.61,5.12,7.97,4.97,12.96-.06,2.07.47,3.67,1.84,5.34,7.8,9.44,4.29,24.86-7.21,29.59-4.75,1.95-5.68,4.45-5.59,9.06.29,14.51.15,29.02.06,43.53-.01,2.19.64,3.37,2.73,4.25,6.39,2.69,10.44,7.52,11.99,14.3,1.55,6.81-.58,12.64-5.22,17.6-1.35,1.44-1.8,2.38-.71,4.37,4.85,8.8,2.24,19.53-6.08,25.23-2.01,1.38-2.73,2.86-2.72,5.25.09,18.86.08,37.71,0,56.57,0,2.24.67,3.5,2.68,4.64,7.21,4.1,11.22,10.36,11.67,18.73.08,1.44.66,2.7,1.2,3.98,5.71,13.4-1,28.18-12.68,34.22-13.12,6.79-25.57,5.58-37.23-3.52-2.29-1.79-4.13-4.06-5.46-6.58-1.24-2.35-2.92-2.84-5.36-2.83-26.81.07-53.62.04-80.43.04-6.39,0-12.79,0-19.18,0Z"/>
  </g>
</svg>