<?xml version="1.0" encoding="UTF-8"?>
<svg id="Layer_2" data-name="Layer 2" xmlns="http://www.w3.org/2000/svg" viewBox="0 0 171.5 104.73">
  <g id="Layer_1-2" data-name="Layer 1">
    <path d="m123.43,99.4c-8.12,0-16.24,0-24.36-.01-.94,0-1.66.23-2.36.9-1.41,1.33-3.15,2.03-5.08,2.21-.7.06-1.31.26-1.9.64-4.49,2.88-10.09,1.79-13.14-2.62-.57-.82-1.18-1.13-2.16-1.13-15.2.03-30.4.02-45.59,0-.94,0-1.53.3-2.08,1.08-2.8,3.95-8.59,5.04-12.63,2.37-1.05-.7-2-1-3.32-.85-3.95.46-7.21-.93-9.32-4.37-2.21-3.6-1.93-7.24.44-10.7.36-.53.4-.99.25-1.57-1.02-3.83-.1-7.11,2.85-9.78.59-.53.78-1.14.78-1.91-.01-15.56-.02-31.12,0-46.67,0-.88-.34-1.48-.92-2.1-2.77-2.95-3.46-7.13-1.81-10.69,1.58-3.4,5.31-5.86,9.13-5.42,3.17.37,6.46.92,9.34,2.19,2.32,1.02,4.51,1.33,6.9,1.32,6.28-.02,12.56-.02,18.84,0,.89,0,1.54-.3,2.27-.82,2.03-1.42,3.72-3.04,5.16-5.11,1.48-2.13,3.88-3.16,6.56-3.2.84-.01,1.51-.28,2.17-.83,3.21-2.68,7.33-3.05,10.97-1.02.59.33,1.18.45,1.84.43,2.16-.08,4.11.54,5.87,1.77.68.47,1.22.55,1.95.08,4.01-2.58,7.96-2.53,11.78.44.5.39.94.33,1.42,0,4.34-2.9,10.58-1.77,13.54,3.45.35.63.83.79,1.49.68,3.58-.58,6.54.57,8.9,3.27.56.64,1.15.87,1.97.87,7.64-.02,15.28-.02,22.92,0,.84,0,1.37-.25,1.86-.99,3.41-5.15,10.37-5.81,14.72-1.41.8.81,1.67,1.41,2.74,1.84,3.4,1.36,5.81,5,5.72,8.71-.1,3.95-2.04,6.83-5.54,8.59-.8.4-1.13.84-1.13,1.72.02,14.56.02,29.12,0,43.67,0,.67.17,1.23.59,1.77,2.14,2.73,2.63,5.78,1.58,9.05-.31.97.2,1.26.81,1.7,3.34,2.45,4.62,5.8,3.83,9.79-.78,3.94-3.3,6.44-7.23,7.3-2.58.57-5.1.22-7.35-1.33-.47-.32-.94-.61-1.53-.63-1.91-.08-3.6-.75-5.07-1.94-.7-.57-1.45-.74-2.32-.74-8.12.02-16.24.01-24.36.01Z"/>
  </g>
</svg>