<?xml version="1.0" encoding="UTF-8"?>
<svg id="Layer_2" data-name="Layer 2" xmlns="http://www.w3.org/2000/svg" viewBox="0 0 252.26 105.8">
  <defs>
    <style>
      .cls-1 {
        fill: #eac0b1;
      }
    </style>
  </defs>
  <g id="Layer_1-2" data-name="Layer 1">
    <path class="cls-1" d="m0,36.5C58.38,42.38,111.62,12.59,167.8,3.67c17.12-2.72,34.3-5.66,51.83-1.85,30.28,6.59,42.72,44.4,23.34,72.73-6.24,9.12-12.86,18.01-21.03,24.7-18.73,15.33-42.29,2.27-44-24.06-.88-13.53,3.07-19.12,14.61-19.76,13.46-.74,26.81.06,40.07,3.6,12.19,3.25,17.68-3.68,15.55-18.51-2.73-18.96-10.84-29.18-26.71-33.05-27.99-6.83-54.99,1.43-82.07,7.96-33.29,8.03-65.73,20.76-99.76,24.72-13.4,1.56-26.53,1.35-39.63-3.65Zm204.78,63.97c10.5.16,29.4-15.58,33.71-27.67,1.62-4.53,1.01-7.46-3.02-8.38-13.89-3.16-27.71-7.66-42.06-5.31-8.02,1.32-11.51,7.18-10.74,16.74,1.08,13.28,11.06,24.44,22.1,24.61Z"/>
  </g>
</svg>